<?xml version="1.0" encoding="utf-8"?>
<!-- Generator: Adobe Illustrator 19.0.0, SVG Export Plug-In . SVG Version: 6.00 Build 0)  -->
<svg version="1.1" id="Layer_facebook" xmlns="http://www.w3.org/2000/svg" xmlns:xlink="http://www.w3.org/1999/xlink" x="0px" y="0px"
	 viewBox="0 0 128 128" style="enable-background:new 0 0 128 128;" xml:space="preserve">
<style type="text/css">
	*:hover {
		cursor: pointer;
	}
	.st0{fill:#3A5999;}
	.st1{fill:#FFFFFF;}
</style>
<g id="XMLID_1_">
	<path id="XMLID_2_" class="st0" d="M64,128L64,128C28.7,128,0,99.3,0,64v0C0,28.7,28.7,0,64,0h0c35.3,0,64,28.7,64,64v0
		C128,99.3,99.3,128,64,128z"/>
	<path id="White_18_" class="st1" d="M92.1,32.2H35.4c-1.9,0-3.5,1.6-3.5,3.5v56.7c0,1.9,1.6,3.5,3.5,3.5h30.5V71.2h-8.3v-9.6h8.3
		v-7.1c0-8.2,5-12.7,12.4-12.7c3.5,0,6.5,0.3,7.4,0.4v8.6l-5.1,0c-4,0-4.8,1.9-4.8,4.7v6.1h9.5l-1.2,9.6h-8.3v24.7h16.2
		c1.9,0,3.5-1.6,3.5-3.5V35.7C95.6,33.7,94,32.2,92.1,32.2z"/>
</g>
</svg>
