<?xml version="1.0" encoding="utf-8"?>
<!-- Generator: Adobe Illustrator 19.0.0, SVG Export Plug-In . SVG Version: 6.00 Build 0)  -->
<svg version="1.1" id="Layer_instagram" xmlns="http://www.w3.org/2000/svg" xmlns:xlink="http://www.w3.org/1999/xlink" x="0px" y="0px"
	 viewBox="0 0 128 128" style="enable-background:new 0 0 128 128;" xml:space="preserve">
<style type="text/css">
	.st0{fill:#D84315;}
	.st1{fill:#FFFFFF;}
	.st2{fill:#FB3957;}
</style>
<g id="XMLID_1_">
	<g id="XMLID_2_">
		<g id="XMLID_3_">
			<path id="XMLID_4_" class="st0" d="M64,128L64,128C28.7,128,0,99.3,0,64v0C0,28.7,28.7,0,64,0h0c35.3,0,64,28.7,64,64v0
				C128,99.3,99.3,128,64,128z"/>
		</g>
	</g>
	<g id="Lozenge_38_">
		<g id="XMLID_32_">
			<path id="XMLID_33_" class="st1" d="M95.2,51.3c0,0-0.6-4.4-2.5-6.3c-2.4-2.5-5.1-2.6-6.4-2.7C77.4,41.6,64,41.6,64,41.6h0
				c0,0-13.4,0-22.3,0.6c-1.2,0.1-4,0.2-6.4,2.7c-1.9,1.9-2.5,6.3-2.5,6.3s-0.6,5.2-0.6,10.3v4.8c0,5.2,0.6,10.3,0.6,10.3
				s0.6,4.4,2.5,6.3c2.4,2.5,5.6,2.5,7,2.7c5.1,0.5,21.7,0.6,21.7,0.6s13.4,0,22.3-0.7c1.2-0.1,4-0.2,6.4-2.7
				c1.9-1.9,2.5-6.3,2.5-6.3s0.6-5.2,0.6-10.3v-4.8C95.9,56.4,95.2,51.3,95.2,51.3z M57.4,72.3l0-17.9l17.2,9L57.4,72.3z"/>
		</g>
	</g>
</g>
<g id="XMLID_9_">
	<g id="XMLID_10_">
		<path id="XMLID_11_" class="st2" d="M64,128L64,128c35.3,0,64-28.7,64-64v0c0-35.3-28.7-64-64-64h0C28.7,0,0,28.7,0,64v0
			C0,99.3,28.7,128,64,128z"/>
	</g>
	<path id="XMLID_12_" class="st1" d="M40.1,32.1h47.4c4.5,0,8.2,3.7,8.2,8.2v47.4c0,4.5-3.7,8.2-8.2,8.2H40.1
		c-4.5,0-8.2-3.7-8.2-8.2V40.3C31.9,35.8,35.6,32.1,40.1,32.1z M78.3,39.2c-1.6,0-2.9,1.3-2.9,2.9V49c0,1.6,1.3,2.9,2.9,2.9h7.2
		c1.6,0,2.9-1.3,2.9-2.9v-6.9c0-1.6-1.3-2.9-2.9-2.9H78.3z M88.4,59.1h-5.6c0.5,1.7,0.8,3.6,0.8,5.5c0,10.6-8.9,19.2-19.8,19.2
		C52.9,83.8,44,75.2,44,64.6c0-1.9,0.3-3.7,0.8-5.5H39V86c0,1.4,1.1,2.5,2.5,2.5h44.4c1.4,0,2.5-1.1,2.5-2.5V59.1z M63.8,51.5
		C56.7,51.5,51,57,51,63.9c0,6.8,5.7,12.4,12.8,12.4c7.1,0,12.8-5.6,12.8-12.4C76.6,57,70.9,51.5,63.8,51.5z"/>
</g>
</svg>
