<svg xmlns="http://www.w3.org/2000/svg">
    <symbol viewBox="0 0 422 63" id="s">
		<path fill="#ED1C24" d="M93,15h-8.3C79,9.3,71.6,6.2,64,6.2c-7.7,0-15,3.1-20.7,8.8H35C41.2,6,52.3,0,64,0
			C75.9,0,87,6.2,93,15z"/>
			<path fill="#ED1C24" d="M382.5,6c2.3,0,3.8,1,5.6,3.4c1.3,1.7,2.7,4,3.6,5.3c1-1.6,2.2-3.4,3.4-5
			c1.1-1.3,2.5-1.9,3.8-1.9c2.5,0,5,1.5,6.7,2.7c2.3,1.8,5.1,4.5,6.6,7.2c0.9,1.5,1.3,2.8,1.3,4c0,1.4-0.6,2.8-2,4.6
			c-1.3,1.7-3,3.8-4,5c1.9,0.5,3.9,1.1,5.8,1.7c2.7,0.9,3.5,2.9,3.5,5.1c0,4.1-2.8,10.3-5.9,13.5c-1.7,1.8-3.1,2.7-4.8,2.7
			c-1,0-2.1-0.2-3.4-0.7c-2.1-0.7-4.6-1.6-6-2.2c0.1,1.9,0.2,2.9,0.2,6.1c0,5.1-5.7,5.5-9,5.5c-3.1,0-6.9-0.6-9.8-1.9
			c-3.3-1.6-4.4-3.2-4.4-8.5c0-1.8,0.1-3.2,0.2-4.5l0.1-0.7c-1.8,0.7-3.8,1.4-5.7,2c-4.9,1.6-7-3.7-8-6.7c-1-2.9-1.3-5.5-1.3-7.8
			c0-5.3,1.7-7.1,5.7-8.4c2.1-0.7,4.7-1.3,6.2-1.7c-1.2-1.5-2.5-3.1-3.7-4.8c-0.7-1-1-1.9-1-2.8c0-3,3-5.4,5-6.8
			C373.7,8.6,378.3,6,382.5,6z M381,43.6c-0.6,0.6-1.3,1.1-2.1,1.5c-1,0.6-2.5,1.3-4,1.9c1.7,1.7,6,5.2,12.4,5.2
			c1.5,0,1.9-0.7,1.9-1.5c0-1.1-1.1-1.6-2.7-2.1c-2.1-0.6-5.7-1.5-5.7-4.2C380.9,44.1,380.9,43.8,381,43.6z M404.3,38.1
			c-0.8,0-1.6,0.6-2.4,1.8c-1.3,1.8-3.2,4.9-5.8,4.1c-0.3-0.1-0.6-0.2-0.7-0.4c0.4,0.7,0.6,1.6,0.8,2.4c0.2,1.2,0.4,2.7,0.6,4.5
			c1.6-0.8,4.3-2.6,6.5-5.6c1.6-2.4,2.5-4.6,2.5-5.5C405.8,38.5,404.9,38.1,404.3,38.1z M388.3,23c-0.3,1.6-2,3.4-4.5,5.2
			c-2.8,2-4.7,2.5-6.1,2.3c1.4,0.8,2.6,2.9,3.6,5.8c0.6,1.7,0.8,2.9,0.8,4c0,0.9-0.2,1.7-0.5,2.2c1.2-1.1,3.6-1.6,6.7-1.6
			c3.4,0,5.3,0.7,6.3,1.6c-0.2-0.6-0.4-1.2-0.3-2c0-1.3,0.3-2.8,0.9-4.6c1.1-3.2,2.3-4.7,3.5-5.4c-1.6,0.2-3.8-0.8-6.4-2.6
			C389.6,26,388.5,24.4,388.3,23z M371.5,25.4c-1.1,2.2-3.1,7.4-1.1,13.2c0.4,1.3,1.3,1.6,2,1.4c1-0.3,1.3-1.4,1.2-3.1
			c-0.1-2.2-0.3-5.8,2.3-6.6c0.3-0.1,0.4-0.1,0.6-0.1C375.5,29.7,373.8,28,371.5,25.4z M398.5,19.1c-0.8,0-1.4,0.7-1.4,1.4
			c0,0.7,0.5,1.5,1.2,2.5c1,1.3,2.6,3.3,2.6,5.1c0,1.2-0.7,1.9-1.1,2.2c0.4-0.1,0.7-0.1,1.1-0.1c1.3,0,3.6,0.4,5.9,1
			c-0.4-2.5-1.8-7.8-7-11.5C399.3,19.2,398.9,19.1,398.5,19.1z M388.4,15.3c-2.9,0-6.7,0.6-10.4,3.3c-0.7,0.5-1,1-1,1.5
			c0,0.5,0.4,1.5,1.6,1.5c1.8,0,4.2-1.6,6.7-1.6c2.3,0,2.9,1.6,3,1.9c0.1-1.1,1-3.3,3-6.4C390.5,15.4,389.5,15.3,388.4,15.3z"/>
		<polygon fill="#004785" points="82,56 89,56 89,21 82,21 "/>
		<path fill="#004785" d="M75.6,48.7l0.4-0.3l-1.7,6.8l-0.1,0c-1.2,0.7-3.1,1.7-6.3,1.6c-4.7-0.1-7.9-3.8-7.9-9.3v-20h-6V21
			h6v-7.2l7-3.8v11h7.2v6.7H67v18.8c0,2.8,1,4,3.3,4C71.9,50.5,73.7,49.9,75.6,48.7z"/>
		<polygon fill="#004785" points="40,56 47,56 47,21 40,21 "/>
		<path fill="#004785" d="M12.3,39c0,6.5,4.6,11.2,10.9,11.2c3,0,6-1.3,8.5-3.9l0.2-0.2L36,51l-0.1,0.1
			c-3.4,4-7.5,5.9-12.5,5.9c-5,0-9.6-1.7-12.9-4.7C6.9,49,5,44.4,5,39c0-5.5,1.9-10.1,5.5-13.3c3.3-3,7.9-4.7,12.9-4.7
			c5,0,9.1,1.9,12.5,5.9L36,27l-4.1,4.9l-0.2-0.2c-2.5-2.6-5.5-3.9-8.5-3.9C16.9,27.8,12.3,32.5,12.3,39z"/>
		<path fill="#004785" d="M355,56h-8.2l-3.3-6.1c-1.4-2.5-3-5.7-3.6-7.1c-0.6,1.3-2.4,4.7-3.8,7.1l-3.4,6H325l10.7-18.1
			L325.7,21h7.9l2.7,4.9c1.4,2.5,3,5.7,3.6,7c0.7-1.3,2.4-4.7,3.7-7.1l2.7-4.8h7.9l-10,16.9L355,56z"/>
		<path fill="#004785" d="M308.9,20c9.9,0,15.1,8.2,15.1,17.8c0,1.3-0.1,2.4-0.2,3.2l0,0h-24
		c0.7,6.8,5,9.7,9.3,9.7c2.9,0,6-1.1,8.3-2.8l0,0l3.8,4.6c-3,3-7.2,4.7-12.5,4.7c-8.1,0-15.7-6.7-15.7-18.5
		C293,26.5,299.9,20,308.9,20z M308.4,26.3c-4.6,0-7.9,3.2-8.5,8.9l0,0h17.2C316.8,30.3,314,26.3,308.4,26.3z"/>
		<path fill="#004785" d="M288,35.5V56h-7V36.1c0-7.1-2.2-9.7-6.7-9.7c-4.6,0-6.6,3.3-6.6,9V56h-7V36.1
		c0-7.1-2.1-9.7-6.6-9.7c-4.6,0-7,3.3-7,9V56h-7V20.7h7v3.4c1.7-2.6,5-4.1,8.6-4.1c4.7,0,7.7,1.8,9.6,5.2c2.5-3.2,5.2-5.2,10.7-5.2
		C284,20,288,23.7,288,35.5z"/>
		<path fill="#004785" d="M219.9,20c8,0,14.1,3.9,14.1,11.9l0,0v24.4h-7.2v-3.5c-2.4,2.4-6.2,4.3-10.1,4.3
		C211,57,204,53.8,204,45c0-7.9,6.5-11.5,14.6-11.5c3.3,0,6.3,0.5,8.2,1.4l0,0v-2.6c0-3.9-2.9-6-7.3-6c-3.7,0-6.5,0.7-9.3,2.2l0,0
		l-2.7-5.3C210.9,21.1,214.8,20,219.9,20z M218.4,39.5c-4.5,0-7.6,2-7.6,5.3c0,3.5,2.5,5.9,7.1,5.9c3.7,0,7.3-2.3,8.9-4.5l0,0v-5.1
		C224.9,40.2,222.2,39.5,218.4,39.5z"/>
		<path fill="#004785" d="M150.9,20c8,0,14.1,3.9,14.1,11.9l0,0v24.4h-7.2v-3.5c-2.4,2.4-6.2,4.3-10.1,4.3
		C142,57,135,53.8,135,45c0-7.9,6.5-11.5,14.6-11.5c3.3,0,6.3,0.5,8.2,1.4l0,0v-2.6c0-3.9-2.9-6-7.3-6c-3.7,0-6.5,0.7-9.3,2.2l0,0
		l-2.7-5.3C141.9,21.1,145.8,20,150.9,20z M149.4,39.5c-4.5,0-7.6,2-7.6,5.3c0,3.5,2.5,5.9,7.1,5.9c3.7,0,7.3-2.3,8.9-4.5l0,0v-5.1
		C155.9,40.2,153.2,39.5,149.4,39.5z"/>
		<path fill="#004785" d="M200,35.8V56h-7.1V36.1c0-7.1-2.7-9.7-7.3-9.7c-4.6,0-7.5,3.3-7.5,9V56H171V20.7h7.1v3.4
		c1.7-2.6,5.6-4.1,9.3-4.1C195.6,20,200,24.6,200,35.8z"/>
		<path fill="#004785" d="M108.1,10v14.4c2.5-2.4,6-4.1,9.7-4.1c7.5,0,14.3,5.5,14.3,18.9
		c0,12.1-7.4,17.8-14.6,17.8c-3.5,0-7.4-1.9-9.3-4l0,0v3.3H101V13.8L108.1,10z M116.4,26.6c-3.3,0-6.7,2.2-8.5,4.5l0,0V46
		c1.5,2.1,5.3,4.6,8.7,4.6c4.9,0,8.4-3.8,8.4-11.2C125.1,30.5,121.5,26.6,116.4,26.6z"/>
    </symbol>
</svg>
