<?xml version="1.0" standalone="no"?>
<!DOCTYPE svg PUBLIC "-//W3C//DTD SVG 20010904//EN"
 "http://www.w3.org/TR/2001/REC-SVG-20010904/DTD/svg10.dtd">
<svg version="1.0" xmlns="http://www.w3.org/2000/svg"
 width="195.000000pt" height="195.000000pt" viewBox="0 0 195.000000 195.000000"
 preserveAspectRatio="xMidYMid meet">
<metadata>
Created by potrace 1.11, written by Peter Selinger 2001-2013
</metadata>
<g transform="translate(0.000000,195.000000) scale(0.100000,-0.100000)"
fill="#000000" stroke="none">
<path d="M243 1218 l-243 -243 243 -242 243 -243 489 0 490 0 243 243 243 242
-244 243 -244 242 -488 0 -489 0 -243 -242z m515 -30 c114 -115 210 -208 213
-208 4 0 114 106 245 236 l239 235 3 -235 c1 -129 1 -343 0 -476 l-3 -242
-239 236 c-132 130 -242 236 -245 236 -3 0 -90 -84 -193 -187 -103 -104 -210
-210 -237 -238 l-51 -49 0 479 0 479 31 -30 c17 -16 124 -122 237 -236z"/>
</g>
</svg>
