<?xml version="1.0" encoding="utf-8"?>
<!-- Generator: Adobe Illustrator 19.0.0, SVG Export Plug-In . SVG Version: 6.00 Build 0)  -->
<svg version="1.1" id="Layer_twitter" xmlns="http://www.w3.org/2000/svg" xmlns:xlink="http://www.w3.org/1999/xlink" x="0px" y="0px"
	 viewBox="0 0 128 128" style="enable-background:new 0 0 128 128;" xml:space="preserve">
<style type="text/css">
	*:hover {
        cursor: pointer;
    }
	.st0{fill:#42A5F5;}
	.st1{fill:#FFFFFF;}
</style>
<g id="XMLID_1_">
	<g id="XMLID_2_">
		<path id="XMLID_3_" class="st0" d="M64,128L64,128C28.7,128,0,99.3,0,64v0C0,28.7,28.7,0,64,0h0c35.3,0,64,28.7,64,64v0
			C128,99.3,99.3,128,64,128z"/>
	</g>
	<path id="XMLID_4_" class="st1" d="M95.9,44.2c-2.3,1-4.9,1.7-7.5,2.1c2.7-1.6,4.8-4.2,5.8-7.2c-2.5,1.5-5.3,2.6-8.3,3.2
		c-2.4-2.5-5.8-4.1-9.5-4.1c-7.2,0-13.1,5.9-13.1,13.1c0,1,0.1,2,0.3,3c-10.9-0.5-20.5-5.7-27-13.7c-1.1,1.9-1.8,4.2-1.8,6.6
		c0,4.5,2.3,8.5,5.8,10.9c-2.1-0.1-4.2-0.7-5.9-1.6v0.2c0,6.3,4.5,11.6,10.5,12.8c-1.1,0.3-2.3,0.5-3.4,0.5c-0.8,0-1.7-0.1-2.5-0.2
		c1.7,5.2,6.5,9,12.2,9.1c-4.5,3.5-10.1,5.6-16.2,5.6c-1.1,0-2.1-0.1-3.1-0.2c5.8,3.7,12.7,5.9,20,5.9c24.1,0,37.2-19.9,37.2-37.2
		c0-0.6,0-1.1,0-1.7C91.9,49.2,94.1,46.9,95.9,44.2z"/>
</g>
</svg>
