<?xml version="1.0" encoding="utf-8"?>
<!-- Generator: Adobe Illustrator 19.0.0, SVG Export Plug-In . SVG Version: 6.00 Build 0)  -->
<svg version="1.1" id="Layer_youtube" xmlns="http://www.w3.org/2000/svg" xmlns:xlink="http://www.w3.org/1999/xlink" x="0px" y="0px"
	 viewBox="0 0 128 128" style="enable-background:new 0 0 128 128;" xml:space="preserve">
<style type="text/css">
	.st0{fill:#D84315;}
	.st1{fill:#FFFFFF;}
</style>
<g id="XMLID_1_">
	<g id="XMLID_2_">
		<g id="XMLID_3_">
			<path id="XMLID_4_" class="st0" d="M64,128L64,128C28.7,128,0,99.3,0,64v0C0,28.7,28.7,0,64,0h0c35.3,0,64,28.7,64,64v0
				C128,99.3,99.3,128,64,128z"/>
		</g>
	</g>
	<g id="Lozenge_38_">
		<g id="XMLID_32_">
			<path id="XMLID_33_" class="st1" d="M95.2,51.3c0,0-0.6-4.4-2.5-6.3c-2.4-2.5-5.1-2.6-6.4-2.7C77.4,41.6,64,41.6,64,41.6h0
				c0,0-13.4,0-22.3,0.6c-1.2,0.1-4,0.2-6.4,2.7c-1.9,1.9-2.5,6.3-2.5,6.3s-0.6,5.2-0.6,10.3v4.8c0,5.2,0.6,10.3,0.6,10.3
				s0.6,4.4,2.5,6.3c2.4,2.5,5.6,2.5,7,2.7c5.1,0.5,21.7,0.6,21.7,0.6s13.4,0,22.3-0.7c1.2-0.1,4-0.2,6.4-2.7
				c1.9-1.9,2.5-6.3,2.5-6.3s0.6-5.2,0.6-10.3v-4.8C95.9,56.4,95.2,51.3,95.2,51.3z M57.4,72.3l0-17.9l17.2,9L57.4,72.3z"/>
		</g>
	</g>
</g>
</svg>
